<?xml version="1.0" standalone="no"?>
<!DOCTYPE svg PUBLIC "-//W3C//DTD SVG 20010904//EN"
 "http://www.w3.org/TR/2001/REC-SVG-20010904/DTD/svg10.dtd">
<svg version="1.0" xmlns="http://www.w3.org/2000/svg"
 width="512.000000pt" height="512.000000pt" viewBox="0 0 512.000000 512.000000"
 preserveAspectRatio="xMidYMid meet">
<metadata>
Created by potrace 1.16, written by Peter Selinger 2001-2019
</metadata>
<g transform="translate(0.000000,512.000000) scale(0.100000,-0.100000)"
fill="#000000" stroke="none">
<path d="M2240 5105 c-462 -60 -856 -222 -1240 -509 -122 -91 -385 -354 -476
-476 -268 -358 -434 -747 -501 -1170 -26 -164 -26 -616 0 -780 82 -519 319
-998 680 -1376 394 -412 874 -667 1441 -766 174 -30 543 -37 727 -13 1188 149
2110 1084 2239 2272 16 145 8 533 -14 667 -184 1134 -1088 2011 -2216 2151
-150 18 -501 18 -640 0z m610 -331 c805 -101 1517 -667 1803 -1434 155 -415
181 -898 72 -1326 -200 -782 -804 -1396 -1583 -1610 -443 -121 -947 -96 -1378
69 -665 255 -1179 827 -1364 1519 -95 357 -95 779 0 1136 105 392 316 752 606
1032 497 481 1157 700 1844 614z"/>
<path d="M2472 3820 c-18 -11 -41 -34 -52 -52 -19 -32 -20 -52 -20 -540 l0
-508 -507 0 c-489 0 -509 -1 -541 -20 -48 -30 -72 -75 -72 -140 0 -65 24 -110
72 -140 32 -19 52 -20 541 -20 l507 0 0 -507 c0 -489 1 -509 20 -541 30 -48
75 -72 140 -72 65 0 110 24 140 72 19 32 20 52 20 541 l0 507 508 0 c488 0
508 1 540 20 48 30 72 75 72 140 0 65 -24 110 -72 140 -32 19 -52 20 -540 20
l-508 0 0 508 c0 488 -1 508 -20 540 -30 48 -75 72 -140 72 -37 0 -66 -6 -88
-20z"/>
</g>
</svg>
