<?xml version="1.0" standalone="no"?>
<!DOCTYPE svg PUBLIC "-//W3C//DTD SVG 20010904//EN"
 "http://www.w3.org/TR/2001/REC-SVG-20010904/DTD/svg10.dtd">
<svg version="1.0" xmlns="http://www.w3.org/2000/svg"
 width="512.000000pt" height="512.000000pt" viewBox="0 0 512.000000 512.000000"
 preserveAspectRatio="xMidYMid meet">
<metadata>
Created by potrace 1.16, written by Peter Selinger 2001-2019
</metadata>
<g transform="translate(0.000000,512.000000) scale(0.100000,-0.100000)"
fill="#000000" stroke="none">
<path d="M2360 4945 c-355 -79 -628 -336 -731 -686 -17 -59 -23 -109 -26 -246
l-5 -173 -113 0 c-134 0 -211 -20 -301 -78 -115 -75 -196 -187 -228 -317 -11
-43 -33 -439 -81 -1427 -62 -1290 -65 -1371 -50 -1440 41 -197 187 -353 380
-404 41 -11 297 -14 1358 -14 l1308 0 76 25 c184 62 309 203 348 393 15 69 12
150 -50 1435 -47 994 -69 1380 -80 1427 -24 102 -61 168 -139 246 -115 116
-212 154 -392 154 l-112 0 -5 173 c-3 137 -9 187 -26 246 -96 328 -344 576
-672 672 -97 28 -359 36 -459 14z m295 -320 c212 -23 419 -192 500 -408 26
-69 45 -200 45 -314 l0 -63 -640 0 -640 0 0 63 c0 114 19 245 45 314 67 176
203 312 379 378 66 25 185 45 236 39 14 -2 48 -6 75 -9z m1033 -1116 c63 -13
125 -65 146 -122 13 -34 29 -297 80 -1379 45 -921 62 -1348 55 -1371 -15 -54
-51 -100 -99 -127 l-45 -25 -1265 0 -1265 0 -42 22 c-49 27 -87 73 -101 126
-16 57 112 2696 133 2753 21 56 74 104 132 120 63 17 2194 20 2271 3z"/>
<path d="M1745 3318 c-122 -67 -123 -232 -2 -294 46 -24 122 -20 167 10 93 61
94 209 1 272 -27 18 -48 24 -91 24 -30 0 -64 -6 -75 -12z"/>
<path d="M3209 3306 c-97 -66 -89 -229 12 -282 36 -18 118 -21 150 -4 123 63
128 234 9 295 -46 24 -129 19 -171 -9z"/>
</g>
</svg>
