<?xml version="1.0" standalone="no"?>
<!DOCTYPE svg PUBLIC "-//W3C//DTD SVG 20010904//EN"
 "http://www.w3.org/TR/2001/REC-SVG-20010904/DTD/svg10.dtd">
<svg version="1.0" xmlns="http://www.w3.org/2000/svg"
 width="512.000000pt" height="512.000000pt" viewBox="0 0 512.000000 512.000000"
 preserveAspectRatio="xMidYMid meet">
<metadata>
Created by potrace 1.16, written by Peter Selinger 2001-2019
</metadata>
<g transform="translate(0.000000,512.000000) scale(0.100000,-0.100000)"
fill="#000000" stroke="none">
<path d="M1862 5096 c-146 -55 -253 -169 -296 -315 -11 -36 -16 -94 -16 -168
l0 -113 -337 0 c-362 0 -392 -3 -488 -53 -165 -84 -252 -241 -243 -439 3 -82
8 -102 40 -168 49 -100 120 -171 220 -218 l78 -37 2 -1545 3 -1545 28 -78 c71
-202 229 -353 422 -402 51 -13 222 -15 1283 -15 1085 0 1231 2 1286 16 162 42
310 163 385 315 75 154 71 53 71 1745 0 1434 1 1515 18 1520 57 19 133 64 175
103 266 249 154 694 -198 786 -48 12 -125 15 -392 15 l-333 0 0 94 c0 51 -5
117 -10 147 -24 124 -110 247 -218 313 -112 67 -97 66 -791 65 l-626 0 -63
-23z m1327 -244 c98 -53 130 -116 131 -254 l0 -98 -761 0 -761 0 4 113 c3 101
6 116 31 154 34 54 91 92 154 103 26 4 298 7 603 7 l555 -2 44 -23z m1069
-618 c140 -58 175 -231 69 -338 -24 -24 -60 -47 -83 -54 -55 -16 -3308 -18
-3367 -1 -21 5 -54 24 -74 42 -115 101 -88 283 52 348 38 18 106 19 1703 19
1481 0 1667 -2 1700 -16z m-208 -2156 c0 -1260 -2 -1510 -14 -1549 -49 -161
-158 -258 -313 -280 -42 -6 -520 -8 -1214 -7 l-1144 3 -57 23 c-102 41 -185
133 -225 248 -16 45 -18 161 -20 1557 l-4 1507 1496 0 1495 0 0 -1502z"/>
<path d="M1794 3254 c-69 -34 -64 56 -64 -1247 l0 -1175 26 -31 c71 -85 203
-42 219 72 3 23 5 553 3 1177 -3 1107 -3 1136 -23 1164 -34 51 -104 69 -161
40z"/>
<path d="M2503 3254 c-18 -9 -40 -28 -50 -43 -17 -25 -18 -88 -21 -1161 -2
-624 0 -1154 3 -1177 16 -114 148 -157 219 -72 l26 31 0 1175 c0 1306 5 1214
-66 1248 -40 19 -71 19 -111 -1z"/>
<path d="M3210 3253 c-20 -10 -43 -33 -53 -53 -16 -33 -17 -106 -15 -1200 3
-1066 4 -1167 20 -1188 27 -39 56 -54 103 -54 57 0 101 30 115 80 8 26 10 394
8 1199 l-3 1163 -30 29 c-39 39 -97 49 -145 24z"/>
</g>
</svg>
