<?xml version="1.0" standalone="no"?>
<!DOCTYPE svg PUBLIC "-//W3C//DTD SVG 20010904//EN"
 "http://www.w3.org/TR/2001/REC-SVG-20010904/DTD/svg10.dtd">
<svg version="1.0" xmlns="http://www.w3.org/2000/svg"
 width="512.000000pt" height="512.000000pt" viewBox="0 0 512.000000 512.000000"
 preserveAspectRatio="xMidYMid meet">
<metadata>
Created by potrace 1.16, written by Peter Selinger 2001-2019
</metadata>
<g transform="translate(0.000000,512.000000) scale(0.100000,-0.100000)"
fill="#000000" stroke="none">
<path d="M2330 5014 c-457 -55 -821 -188 -1167 -426 -499 -344 -862 -871 -998
-1453 -51 -217 -60 -305 -60 -575 0 -270 9 -358 60 -575 165 -704 655 -1316
1310 -1634 241 -118 444 -182 720 -228 157 -26 573 -26 730 0 639 106 1173
415 1561 903 271 340 436 718 511 1169 26 157 26 573 0 730 -79 474 -255 862
-554 1223 -312 375 -779 671 -1252 793 -218 56 -335 71 -591 74 -129 2 -251 1
-270 -1z m520 -330 c679 -89 1290 -521 1612 -1141 161 -309 239 -629 239 -983
0 -199 -16 -331 -61 -515 -127 -515 -455 -978 -905 -1276 -257 -170 -576 -290
-886 -334 -151 -21 -429 -21 -574 0 -701 103 -1295 521 -1617 1140 -161 311
-239 631 -239 985 0 198 16 331 62 520 145 589 557 1107 1101 1386 397 203
823 276 1268 218z"/>
<path d="M2318 4495 c-354 -43 -716 -198 -993 -425 -93 -77 -257 -247 -326
-340 -238 -319 -369 -688 -386 -1090 -22 -538 170 -1043 542 -1429 168 -174
316 -284 525 -390 686 -348 1521 -258 2115 229 94 78 258 248 326 340 353 479
473 1077 329 1649 -70 276 -202 538 -380 756 -77 93 -247 257 -340 326 -405
302 -906 435 -1412 374z m-108 -886 c24 -11 346 -194 715 -407 741 -428 756
-438 789 -546 36 -115 2 -245 -83 -317 -39 -34 -1337 -790 -1421 -828 -55 -25
-148 -27 -213 -5 -60 20 -135 88 -167 150 l-25 49 0 855 0 855 23 45 c34 66
79 109 147 141 75 36 166 39 235 8z"/>
<path d="M2055 3431 c-11 -5 -29 -19 -40 -31 -20 -22 -20 -36 -20 -840 l0
-818 24 -26 c33 -35 83 -43 129 -21 81 38 1339 770 1362 792 20 19 25 33 25
73 0 40 -5 54 -25 73 -21 20 -1253 738 -1357 791 -35 17 -66 20 -98 7z"/>
</g>
</svg>
